# This file uses centimeters as units for non-parametric coordinates.

mtllib wall with hole.mtl
g default
v -200.000000 -0.000048 -10.000000
v 200.000000 -0.000048 -10.000000
v -200.000000 -0.000048 10.000000
v 200.000000 -0.000048 10.000000
v -200.000000 400.013580 10.000000
v 200.000000 400.013580 10.000000
v -200.000000 400.013580 -10.000000
v 200.000000 400.013580 -10.000000
v -65.213104 0.000048 10.000000
v 71.639778 0.000048 10.000000
v 71.639778 266.173981 10.000000
v -65.213104 266.173981 10.000000
v -65.213104 266.173981 -10.000000
v 71.639778 266.173981 -10.000000
v 71.639778 0.000048 -10.000000
v -65.213104 0.000048 -10.000000
vt 0.601286 0.643792
vt 0.601286 0.029709
vt 0.631989 0.029709
vt 0.631989 0.643792
vt 0.601286 0.643792
vt 0.601286 0.029709
vt 0.631989 0.029709
vt 0.631989 0.643792
vt 0.370242 0.652368
vt 0.370242 0.023584
vt 0.417488 0.023584
vt 0.417488 0.652368
vt 0.417488 0.023584
vt 0.417488 0.652368
vt 0.370242 0.652368
vt 0.370242 0.023584
vt 0.631989 0.029710
vt 0.631989 0.643792
vt 0.601285 0.643792
vt 0.601285 0.029710
vt 0.425320 0.652368
vt 0.425320 0.329080
vt 0.472566 0.329080
vt 0.472566 0.652368
vt 0.999983 -0.000017
vt 0.999983 0.999983
vt 0.679093 0.665395
vt 0.679093 -0.000017
vt 0.000017 0.999983
vt 0.336973 0.665395
vt 0.000017 -0.000017
vt 0.336973 -0.000017
vt 0.999982 0.999983
vt 0.000017 0.999982
vt 0.320907 0.665395
vt 0.663027 0.665395
vt 0.000017 -0.000017
vt 0.320907 -0.000017
vt 0.999983 -0.000017
vt 0.663027 -0.000017
vn 0.000000 1.000000 0.000000
vn 0.000000 1.000000 0.000000
vn 0.000000 1.000000 0.000000
vn 0.000000 1.000000 0.000000
vn 1.000000 0.000000 0.000000
vn 1.000000 0.000000 0.000000
vn 1.000000 0.000000 0.000000
vn 1.000000 0.000000 0.000000
vn -1.000000 0.000000 0.000000
vn -1.000000 0.000000 0.000000
vn -1.000000 0.000000 0.000000
vn -1.000000 0.000000 0.000000
vn -0.000000 0.000000 1.000000
vn -0.000000 0.000000 1.000000
vn -0.000000 0.000000 1.000000
vn -0.000000 0.000000 1.000000
vn 0.000000 0.000000 1.000000
vn 0.000000 0.000000 1.000000
vn 0.000000 0.000000 1.000000
vn 0.000000 0.000000 1.000000
vn 0.000000 0.000000 -1.000000
vn -0.000000 0.000000 -1.000000
vn -0.000000 0.000000 -1.000000
vn 0.000000 0.000000 -1.000000
vn -0.000000 0.000000 -1.000000
vn -0.000000 0.000000 -1.000000
vn 0.000000 0.000000 -1.000000
vn 0.000000 0.000000 -1.000000
vn -1.000000 0.000000 0.000000
vn -1.000000 0.000000 0.000000
vn -1.000000 0.000000 0.000000
vn -1.000000 0.000000 0.000000
vn 0.000000 -1.000000 0.000000
vn 0.000000 -1.000000 0.000000
vn 0.000000 -1.000000 0.000000
vn 0.000000 -1.000000 0.000000
vn 1.000000 0.000000 0.000000
vn 1.000000 0.000000 0.000000
vn 1.000000 0.000000 0.000000
vn 1.000000 0.000000 0.000000
s off
g pCube54
usemtl initialShadingGroup
f 5/17/1 6/18/2 8/19/3 7/20/4
f 2/1/5 8/2/6 6/3/7 4/4/8
f 7/5/9 1/6/10 3/7/11 5/8/12
s 1
f 4/25/13 6/26/14 11/27/15 10/28/16
f 6/26/14 5/29/17 12/30/18 11/27/15
f 5/29/17 3/31/19 9/32/20 12/30/18
s 2
f 7/33/21 8/34/22 14/35/23 13/36/24
f 8/34/22 2/37/25 15/38/26 14/35/23
f 1/39/27 7/33/21 13/36/24 16/40/28
s off
f 10/9/29 11/10/30 14/11/31 15/12/32
f 11/21/33 12/22/34 13/23/35 14/24/36
f 12/13/37 9/14/38 16/15/39 13/16/40
