# This file uses centimeters as units for non-parametric coordinates.

mtllib floor.mtl
g default
v 0.854809 0.000000 88.581363
v 0.854809 0.000000 -87.019772
v 351.119030 39.535080 88.581363
v 351.119030 39.535080 -87.019772
v 253.784329 18.195055 88.581363
v 220.571087 11.661130 88.581363
v 187.106823 6.566522 88.581363
v 153.453899 2.920721 88.581363
v 119.674992 0.730521 88.581363
v 85.833035 0.000000 88.581363
v 85.833035 0.000000 -87.019772
v 119.674992 0.730521 -87.019772
v 153.453899 2.920721 -87.019772
v 187.106823 6.566522 -87.019772
v 220.571087 11.661130 -87.019772
v 253.784329 18.195055 -87.019772
v 0.854809 3.933219 88.581363
v 85.790592 3.932761 88.581363
v 85.790592 3.932761 -87.019772
v 0.854809 3.933219 -87.019772
v 252.983563 22.045662 -87.019772
v 252.983563 22.045662 88.581363
v 350.276684 43.377045 88.581363
v 350.276684 43.377045 -87.019772
v 119.505306 4.659160 88.581363
v 119.505306 4.659160 -87.019772
v 153.114849 6.838379 88.581363
v 153.114849 6.838379 -87.019772
v 186.599026 10.465899 88.581363
v 186.599026 10.465899 -87.019772
v 219.895489 15.534962 88.581363
v 219.895489 15.534962 -87.019772
vt 0.000000 0.932067
vt 0.162416 0.976900
vt 0.000000 0.819571
vt 0.654193 0.961100
vt 0.184335 0.959563
vt 0.462802 0.819571
vt 0.659475 0.977498
vt 0.001026 0.985553
vt 0.224608 0.969066
vt 0.462802 0.932067
vt 0.287001 0.963933
vt 0.462802 0.598127
vt 0.349558 0.961496
vt 0.000000 0.598127
vt 0.412161 0.961762
vt 0.000000 0.469265
vt 0.005169 0.992768
vt 0.654741 0.953810
vt 0.497228 0.941976
vt 0.161425 0.969657
vt 0.183387 0.952314
vt 0.000000 0.978315
vt 0.659979 0.970205
vt 0.475199 0.957437
vt 0.434399 0.938618
vt 0.223851 0.961796
vt 0.371482 0.937973
vt 0.286559 0.956637
vt 0.308597 0.940045
vt 0.349431 0.954188
vt 0.245860 0.944828
vt 0.412350 0.954455
vt 0.462802 0.469265
vt 0.246573 0.952102
vt 0.000000 0.774917
vt 0.474773 0.964735
vt 0.308995 0.947343
vt 0.462802 0.774917
vt 0.371565 0.945282
vt 0.000000 0.730401
vt 0.434166 0.945923
vt 0.462802 0.730401
vt 0.496759 0.949272
vt 0.000000 0.686052
vt 0.462802 0.686052
vt 0.000000 0.641952
vt 0.006238 1.000000
vt 0.462802 0.641952
vt 0.000000 0.463358
vt 0.463358 0.463358
vt 0.463358 0.350942
vt 0.000000 0.350942
vt 0.463358 0.128762
vt 0.463358 0.000000
vt 0.000000 0.000000
vt 0.000000 0.128762
vt 0.463358 0.306173
vt 0.000000 0.306173
vt 0.463358 0.261487
vt 0.000000 0.261487
vt 0.463358 0.216968
vt 0.000000 0.216969
vt 0.463358 0.172699
vt 0.000000 0.172699
vt 0.985607 0.992706
vt 0.985103 1.000000
vt 0.980227 0.978263
vt 0.979680 0.985553
vn 0.000005 1.000000 0.000000
vn -0.006118 0.999981 0.000000
vn -0.006118 0.999981 0.000000
vn 0.000005 1.000000 0.000000
vn -0.208835 0.977951 0.000000
vn -0.208835 0.977951 0.000000
vn -0.214162 0.976798 0.000000
vn -0.214162 0.976798 0.000000
vn -0.043118 0.999070 0.000000
vn -0.043118 0.999070 0.000000
vn -0.086224 0.996276 0.000000
vn -0.086224 0.996276 0.000000
vn -0.129136 0.991627 0.000000
vn -0.129136 0.991627 0.000000
vn -0.171840 0.985125 0.000000
vn -0.171840 0.985125 0.000000
vn 0.000000 -1.000000 0.000000
vn 0.000000 -1.000000 0.000000
vn 0.006148 -0.999981 0.000000
vn 0.006148 -0.999981 0.000000
vn 0.208808 -0.977957 0.000000
vn 0.214157 -0.976799 0.000000
vn 0.214157 -0.976799 0.000000
vn 0.208808 -0.977957 0.000000
vn 0.043152 -0.999068 0.000000
vn 0.043152 -0.999068 0.000000
vn 0.086224 -0.996276 0.000000
vn 0.086224 -0.996276 0.000000
vn 0.129136 -0.991627 0.000000
vn 0.129136 -0.991627 0.000000
vn 0.171806 -0.985131 0.000000
vn 0.171806 -0.985131 0.000000
vn 0.000000 0.000000 1.000000
vn 0.000000 0.000000 1.000000
vn 0.000000 0.000000 1.000000
vn 0.000000 0.000000 1.000000
vn 0.000000 0.000000 -1.000000
vn 0.000000 0.000000 -1.000000
vn 0.000000 0.000000 -1.000000
vn 0.000000 0.000000 -1.000000
vn -1.000000 0.000000 0.000000
vn -1.000000 0.000000 0.000000
vn -1.000000 0.000000 0.000000
vn -1.000000 0.000000 0.000000
vn 0.000000 0.000000 1.000000
vn 0.000000 0.000000 1.000000
vn 0.000000 0.000000 1.000000
vn 0.000000 0.000000 1.000000
vn 0.976798 0.214163 0.000000
vn 0.976798 0.214163 0.000000
vn 0.976798 0.214163 0.000000
vn 0.976798 0.214163 0.000000
vn -0.000000 0.000000 -1.000000
vn 0.000000 0.000000 -1.000000
vn -0.000000 0.000000 -1.000000
vn -0.000000 0.000000 -1.000000
vn 0.000000 0.000000 1.000000
vn 0.000000 0.000000 1.000000
vn 0.000000 0.000000 -1.000000
vn 0.000000 0.000000 -1.000000
vn 0.000000 0.000000 1.000000
vn 0.000000 0.000000 1.000000
vn 0.000000 0.000000 -1.000000
vn 0.000000 0.000000 -1.000000
vn 0.000000 0.000000 1.000000
vn 0.000000 0.000000 1.000000
vn 0.000000 0.000000 -1.000000
vn 0.000000 0.000000 -1.000000
vn 0.000000 0.000000 1.000000
vn 0.000000 0.000000 1.000000
vn 0.000000 0.000000 -1.000000
vn 0.000000 0.000000 -1.000000
s 1
g pPlane4
usemtl initialShadingGroup
f 17/1/1 18/3/2 19/6/3 20/10/4
f 21/12/5 22/14/6 23/16/7 24/33/8
f 18/3/2 25/35/9 26/38/10 19/6/3
f 25/35/9 27/40/11 28/42/12 26/38/10
f 27/40/11 29/44/13 30/45/14 28/42/12
f 29/44/13 31/46/15 32/48/16 30/45/14
f 31/46/15 22/14/6 21/12/5 32/48/16
s 3
f 1/49/17 2/50/18 11/51/19 10/52/20
f 16/53/21 4/54/22 3/55/23 5/56/24
f 10/52/20 11/51/19 12/57/25 9/58/26
f 9/58/26 12/57/25 13/59/27 8/60/28
f 8/60/28 13/59/27 14/61/29 7/62/30
f 7/62/30 14/61/29 15/63/31 6/64/32
f 6/64/32 15/63/31 16/53/21 5/56/24
s 5
f 1/17/33 10/20/34 18/2/35 17/47/36
s 6
f 11/19/37 2/18/38 20/4/39 19/43/40
s off
f 2/18/41 1/67/42 17/68/43 20/4/44
s 5
f 5/24/45 3/23/46 23/7/47 22/36/48
s off
f 3/23/49 4/65/50 24/66/51 23/7/52
s 6
f 4/22/53 16/21/54 21/5/55 24/8/56
s 5
f 10/20/34 9/26/57 25/9/58 18/2/35
s 6
f 12/25/59 11/19/37 19/43/40 26/41/60
s 5
f 9/26/57 8/28/61 27/11/62 25/9/58
s 6
f 13/27/63 12/25/59 26/41/60 28/39/64
s 5
f 8/28/61 7/30/65 29/13/66 27/11/62
s 6
f 14/29/67 13/27/63 28/39/64 30/37/68
s 5
f 7/30/65 6/32/69 31/15/70 29/13/66
s 6
f 15/31/71 14/29/67 30/37/68 32/34/72
s 5
f 6/32/69 5/24/45 22/36/48 31/15/70
s 6
f 16/21/54 15/31/71 32/34/72 21/5/55
