# This file uses centimeters as units for non-parametric coordinates.

mtllib trim.mtl
g default
v -268.954742 -7.897954 2.455811
v -268.954742 -7.756968 2.981987
v -268.954742 -7.371784 3.367165
v -268.954742 -6.845613 3.508156
v 821.974121 -7.756968 2.455811
v 822.359253 -7.371784 2.455811
v 822.500244 -6.845613 2.455811
v 822.359253 -6.845613 2.981987
v 821.974121 -6.845613 3.367165
v 821.447876 -6.845613 3.508156
v 821.447876 -7.371784 3.367165
v 821.447876 -7.756968 2.981987
v 821.447876 -7.897954 2.455811
v -268.954742 7.897954 2.455811
v -268.954742 6.845613 3.508156
v -268.954742 7.371784 3.367165
v -268.954742 7.756968 2.981987
v 822.359253 7.371784 2.455811
v 821.974121 7.756968 2.455811
v 821.447876 7.897954 2.455811
v 821.447876 7.756968 2.981987
v 821.447876 7.371784 3.367165
v 821.447876 6.845613 3.508156
v 821.974121 6.845613 3.367165
v 822.359253 6.845613 2.981987
v 822.500244 6.845613 2.455811
v -268.954742 6.845613 -3.508156
v -268.954742 7.897954 -2.455811
v -268.954742 7.756968 -2.981987
v -268.954742 7.371784 -3.367165
v 822.359253 6.845613 -2.981987
v 821.974121 6.845613 -3.367165
v 821.447876 6.845613 -3.508156
v 821.447876 7.371784 -3.367165
v 821.447876 7.756968 -2.981987
v 821.447876 7.897954 -2.455811
v 821.974121 7.756968 -2.455811
v 822.359253 7.371784 -2.455811
v 822.500244 6.845613 -2.455811
v -268.954742 -7.897954 -2.455811
v -268.954742 -6.845613 -3.508156
v -268.954742 -7.371784 -3.367165
v -268.954742 -7.756968 -2.981987
v 822.359253 -7.371784 -2.455811
v 821.974121 -7.756968 -2.455811
v 821.447876 -7.897954 -2.455811
v 821.447876 -7.756968 -2.981987
v 821.447876 -7.371784 -3.367165
v 821.447876 -6.845613 -3.508156
v 821.974121 -6.845613 -3.367165
v 822.359253 -6.845613 -2.981987
v 822.500244 -6.845613 -2.455811
v 821.902588 -7.677832 2.910515
v 822.280151 -7.300314 2.910515
v 821.902588 -7.300314 3.288033
v 822.280151 7.300314 2.910515
v 821.902588 7.677832 2.910515
v 821.902588 7.300314 3.288033
v 822.280151 7.300314 -2.910515
v 821.902588 7.300314 -3.288033
v 821.902588 7.677832 -2.910515
v 822.280151 -7.300314 -2.910515
v 821.902588 -7.677832 -2.910515
v 821.902588 -7.300314 -3.288033
vt 0.375000 0.962504
vt 0.624759 0.962504
vt 0.662496 0.016655
vt 0.375000 0.233345
vt 0.624759 0.233345
vt 0.662496 0.233345
vt 0.375000 0.462504
vt 0.624759 0.462504
vt 0.837504 0.233345
vt 0.837503 0.016655
vt 0.624759 0.787496
vt 0.375000 0.733345
vt 0.624759 0.733345
vt 0.375000 0.016655
vt 0.624759 0.016655
vt 0.375000 0.287496
vt 0.624759 0.287496
vt 0.375000 0.516655
vt 0.624759 0.516655
vt 0.375000 0.787496
vt 0.162496 0.000000
vt 0.337504 0.000000
vt 0.337504 0.250000
vt 0.162496 0.250000
vt 0.125000 0.233345
vt 0.125000 0.016655
vt 0.375000 0.000000
vt 0.375000 1.000000
vt 0.375000 0.008328
vt 0.624198 0.844935
vt 0.872549 -0.000000
vt 0.623775 0.751225
vt 0.662818 0.016126
vt 0.645256 0.016311
vt 0.748285 0.008327
vt 0.623440 0.751560
vt 0.871880 -0.000000
vt 0.375000 0.241672
vt 0.375000 0.250000
vt 0.625000 0.269973
vt 0.644973 0.250000
vt 0.624948 0.279239
vt 0.624761 0.269441
vt 0.624762 0.251392
vt 0.636263 0.233945
vt 0.648377 0.233997
vt -0.000000 -0.000000
vt 0.375000 0.480554
vt -0.000000 -0.000000
vt 0.375000 0.498605
vt 0.625000 0.507983
vt 0.875000 0.242017
vt 0.624879 0.512166
vt 0.624759 0.498607
vt 0.624759 0.480558
vt 0.624879 0.470737
vt 0.855027 0.250000
vt 0.625000 0.480027
vt -0.000000 -0.000000
vt 0.375000 0.747922
vt -0.000000 -0.000000
vt 0.375000 0.762499
vt 0.624894 0.750106
vt 0.874787 -0.000000
vt 0.624822 0.768804
vt 0.624759 0.769439
vt 0.624759 0.751391
vt 0.624879 0.737809
vt 0.875000 0.007983
vt 0.625000 0.742017
vt 0.872093 -0.000000
vt 0.623546 0.751454
vt 0.872336 -0.000000
vt 0.623668 0.751332
vt 0.679011 0.006667
vt 0.625000 0.250000
vt 0.625551 0.264944
vt 0.628332 0.248127
vt 0.625000 0.500000
vt 0.875000 0.250000
vt 0.624860 0.500687
vt 0.624860 0.484820
vt 0.625000 0.750000
vt 0.875000 0.000000
vt 0.624843 0.761993
vt 0.624857 0.748690
vn 0.000000 -0.009916 0.999951
vn 0.000000 -0.499998 0.866026
vn 0.000097 -0.499997 0.866027
vn 0.000128 -0.009915 0.999951
vn 0.000000 -0.707101 0.707113
vn 0.000096 -0.707101 0.707113
vn 0.000000 -0.965927 0.258816
vn 0.000000 -0.999664 0.025918
vn 0.000126 -0.999664 0.025916
vn 0.000091 -0.965929 0.258807
vn 0.999623 -0.009678 0.025692
vn 0.966243 -0.256959 0.018605
vn 0.966243 -0.256962 -0.018605
vn 0.999623 -0.009678 -0.025692
vn 0.707019 -0.706925 0.019531
vn 0.499609 -0.866026 0.019747
vn 0.499609 -0.866026 -0.019748
vn 0.707019 -0.706925 -0.019531
vn 0.000126 -0.999664 -0.025916
vn 0.499867 -0.007475 0.866070
vn 0.499867 0.007475 0.866070
vn 0.000128 0.009915 0.999951
vn 0.707128 -0.007407 0.707047
vn 0.707128 0.007407 0.707047
vn 0.966089 -0.007031 0.258114
vn 0.999623 0.009678 0.025692
vn 0.966089 0.007032 0.258114
vn 0.000000 0.999664 0.025918
vn 0.000000 0.965927 0.258816
vn 0.000091 0.965929 0.258807
vn 0.000126 0.999664 0.025916
vn 0.000000 0.707101 0.707113
vn 0.000000 0.499998 0.866026
vn 0.000097 0.499997 0.866027
vn 0.000096 0.707101 0.707113
vn 0.000000 0.009916 0.999951
vn 0.499609 0.866026 0.019748
vn 0.499609 0.866026 -0.019747
vn 0.000126 0.999664 -0.025916
vn 0.707019 0.706925 0.019531
vn 0.707019 0.706925 -0.019531
vn 0.966243 0.256962 0.018605
vn 0.999623 0.009678 -0.025692
vn 0.966243 0.256959 -0.018605
vn 0.000000 0.009916 -0.999951
vn 0.000000 0.499998 -0.866026
vn 0.000097 0.499997 -0.866027
vn 0.000128 0.009915 -0.999951
vn 0.000000 0.707101 -0.707113
vn 0.000096 0.707101 -0.707113
vn 0.000000 0.965927 -0.258816
vn 0.000000 0.999664 -0.025918
vn 0.000091 0.965929 -0.258807
vn 0.499867 0.007475 -0.866070
vn 0.499867 -0.007475 -0.866070
vn 0.000128 -0.009915 -0.999951
vn 0.707128 0.007407 -0.707047
vn 0.707128 -0.007407 -0.707047
vn 0.966089 0.007031 -0.258114
vn 0.966089 -0.007032 -0.258114
vn 0.000000 -0.999664 -0.025918
vn 0.000000 -0.965927 -0.258816
vn 0.000091 -0.965929 -0.258807
vn 0.000000 -0.707101 -0.707113
vn 0.000000 -0.499998 -0.866026
vn 0.000097 -0.499997 -0.866027
vn 0.000096 -0.707101 -0.707113
vn 0.000000 -0.009916 -0.999951
vn -1.000000 -0.000000 0.000000
vn -1.000000 -0.000000 0.000000
vn -1.000000 -0.000000 0.000000
vn -1.000000 -0.000000 0.000000
vn -1.000000 -0.000000 0.000000
vn -1.000000 -0.000000 0.000000
vn -1.000000 -0.000000 0.000000
vn -1.000000 -0.000000 0.000000
vn -1.000000 -0.000000 0.000000
vn -1.000000 -0.000000 0.000000
vn -1.000000 -0.000000 0.000000
vn -1.000000 -0.000000 0.000000
vn -1.000000 -0.000000 0.000000
vn -1.000000 -0.000000 0.000000
vn -1.000000 -0.000000 0.000000
vn -1.000000 -0.000000 0.000000
vn 0.228991 -0.946104 0.229020
vn 0.499452 -0.707857 0.499485
vn 0.707817 -0.499517 0.499477
vn 0.946128 -0.228934 0.228979
vn 0.499441 -0.499563 0.707810
vn 0.228989 -0.229003 0.946109
vn 0.946121 0.228963 0.228978
vn 0.707817 0.499517 0.499478
vn 0.499453 0.707857 0.499484
vn 0.229001 0.946099 0.229030
vn 0.499442 0.499562 0.707811
vn 0.228989 0.229003 0.946109
vn 0.946128 0.228934 -0.228979
vn 0.707817 0.499517 -0.499477
vn 0.499441 0.499563 -0.707810
vn 0.228989 0.229003 -0.946109
vn 0.499452 0.707857 -0.499485
vn 0.228991 0.946104 -0.229020
vn 0.946121 -0.228963 -0.228978
vn 0.707817 -0.499517 -0.499478
vn 0.499453 -0.707857 -0.499484
vn 0.229001 -0.946099 -0.229030
vn 0.499442 -0.499562 -0.707811
vn 0.228989 -0.229003 -0.946109
s 1
g pCube43
usemtl initialShadingGroup
f 4/14/1 3/29/2 11/35/3 10/15/4
f 3/29/2 2/27/5 12/37/6 11/35/3
f 2/28/7 1/1/8 13/2/9 12/36/10
s 3
f 7/3/11 6/31/12 44/64/13 52/10/14
s 1
f 6/32/15 5/30/16 45/65/17 44/63/18
f 5/30/16 13/2/9 46/11/19 45/65/17
f 10/15/4 9/34/20 24/45/21 23/5/22
f 9/34/20 8/33/23 25/46/24 24/45/21
s 3
f 8/33/25 7/3/11 26/6/26 25/46/27
s 1
f 14/16/28 17/39/29 21/43/30 20/17/31
f 17/39/32 16/38/33 22/44/34 21/43/35
f 16/38/33 15/4/36 23/5/22 22/44/34
f 20/17/31 19/42/37 37/56/38 36/8/39
f 19/42/37 18/40/40 38/58/41 37/56/38
s 3
f 18/41/42 26/6/26 39/9/43 38/57/44
s 1
f 27/18/45 30/50/46 34/54/47 33/19/48
f 30/50/46 29/48/49 35/55/50 34/54/47
f 29/48/51 28/7/52 36/8/39 35/55/53
f 33/19/48 32/53/54 50/68/55 49/13/56
f 32/53/54 31/51/57 51/70/58 50/68/55
s 3
f 31/52/59 39/9/43 52/10/14 51/69/60
s 1
f 40/20/61 43/62/62 47/66/63 46/11/19
f 43/62/64 42/60/65 48/67/66 47/66/67
f 42/60/65 41/12/68 49/13/56 48/67/66
f 4/14/1 10/15/4 23/5/22 15/4/36
f 14/16/28 20/17/31 36/8/39 28/7/52
f 27/18/45 33/19/48 49/13/56 41/12/68
f 40/20/61 46/11/19 13/2/9 1/1/8
s 3
f 7/3/11 52/10/14 39/9/43 26/6/26
s off
f 40/21/69 1/22/70 2/27/71 3/29/72 4/14/73 15/4/74 16/38/75 17/39/76 14/23/77 28/24/78 29/47/79 30/49/80 27/25/81 41/26/82 42/59/83 43/61/84
s 1
f 12/36/10 13/2/9 5/30/16 53/72/85
f 53/72/86 5/30/16 6/32/15 54/74/87
s 3
f 6/31/12 7/3/11 8/33/25 54/73/88
s 1
f 54/73/87 8/33/23 9/34/20 55/75/89
f 9/34/20 10/15/4 11/35/3 55/75/90
f 55/75/89 11/35/3 12/37/6 53/71/86
f 53/71/86 54/73/87 55/75/89
s 3
f 25/46/27 26/6/26 18/41/42 56/76/91
s 1
f 56/76/92 18/40/40 19/42/37 57/77/93
f 19/42/37 20/17/31 21/43/30 57/77/94
f 57/77/93 21/43/35 22/44/34 58/78/95
f 22/44/34 23/5/22 24/45/21 58/78/96
f 58/78/95 24/45/21 25/46/24 56/76/92
f 56/76/92 57/77/93 58/78/95
s 3
f 38/57/44 39/9/43 31/52/59 59/80/97
s 1
f 59/79/98 31/51/57 32/53/54 60/81/99
f 32/53/54 33/19/48 34/54/47 60/81/100
f 60/81/99 34/54/47 35/55/50 61/82/101
f 35/55/53 36/8/39 37/56/38 61/82/102
f 61/82/101 37/56/38 38/58/41 59/79/98
f 59/79/98 60/81/99 61/82/101
s 3
f 51/69/60 52/10/14 44/64/13 62/84/103
s 1
f 62/83/104 44/63/18 45/65/17 63/85/105
f 45/65/17 46/11/19 47/66/63 63/85/106
f 63/85/105 47/66/67 48/67/66 64/86/107
f 48/67/66 49/13/56 50/68/55 64/86/108
f 64/86/107 50/68/55 51/70/58 62/83/104
f 62/83/104 63/85/105 64/86/107
